<?xml version="1.0" encoding="UTF-8" standalone="no"?>
<!-- Created with Inkscape (http://www.inkscape.org/) -->

<svg
   xmlns:dc="http://purl.org/dc/elements/1.1/"
   xmlns:cc="http://creativecommons.org/ns#"
   xmlns:rdf="http://www.w3.org/1999/02/22-rdf-syntax-ns#"
   xmlns:svg="http://www.w3.org/2000/svg"
   xmlns="http://www.w3.org/2000/svg"
   xmlns:sodipodi="http://sodipodi.sourceforge.net/DTD/sodipodi-0.dtd"
   xmlns:inkscape="http://www.inkscape.org/namespaces/inkscape"
   id="svg3039"
   version="1.1"
   inkscape:version="0.48.3.1 r9886"
   width="2100"
   height="2100"
   sodipodi:docname="kani-kesken.JPG.svg">
  <metadata
     id="metadata3045">
    <rdf:RDF>
      <cc:Work
         rdf:about="">
        <dc:format>image/svg+xml</dc:format>
        <dc:type
           rdf:resource="http://purl.org/dc/dcmitype/StillImage" />
        <dc:title />
      </cc:Work>
    </rdf:RDF>
  </metadata>
  <defs
     id="defs3043" />
  <sodipodi:namedview
     pagecolor="#ffffff"
     bordercolor="#666666"
     borderopacity="1"
     objecttolerance="10"
     gridtolerance="47"
     guidetolerance="10"
     inkscape:pageopacity="0"
     inkscape:pageshadow="2"
     inkscape:window-width="1280"
     inkscape:window-height="884"
     id="namedview3041"
     showgrid="false"
     inkscape:zoom="0.13929739"
     inkscape:cx="972.63792"
     inkscape:cy="797.6519"
     inkscape:window-x="0"
     inkscape:window-y="24"
     inkscape:window-maximized="1"
     inkscape:current-layer="layer1"
     width="1488.19px" />
  <g
     inkscape:groupmode="layer"
     id="layer1"
     inkscape:label="ääriviiva"
     style="display:inline"
     transform="translate(0,-347.99979)">
    <path
       style="fill:none;stroke:#000000;stroke-width:15;stroke-linecap:butt;stroke-linejoin:miter;stroke-miterlimit:4;stroke-opacity:1;stroke-dasharray:none"
       d="m 365.6635,1182.9658 c 51.66494,-73.0315 86.47605,-159.2902 156.1408,-218.9562 50.95896,-45.73833 136.36806,-43.78036 182.19016,-83.31128 35.9929,-125.27918 50.5912,-268.39157 148.5551,-364.68132 37.3883,-53.26985 149.90004,-60.99986 165.25454,13.47588 1.3092,92.11619 118.8439,-114.9792 133.0501,2.88625 -27.4151,104.37154 -50.5276,222.60832 -145.2266,288.52867 -33.80814,40.68442 -54.37754,89.23399 -54.84574,142.16412 -11.6296,70.68358 -51.3935,183.71768 -10.6175,228.88798 77.68644,54.7586 156.18754,-13.8149 236.71324,-16.173 95.3664,9.4979 191.8171,20.2341 279.0473,62.7909 96.4559,36.9594 169.0325,116.1716 241.1178,187.1772 81.0331,105.8546 148.6775,230.469 159.6117,365.609 -8.8281,99.6044 10.8452,201.8913 -11.5887,299.6687 -21.5674,38.6292 -73.7645,70.3896 -17.6486,98.1256 12.8486,68.5744 -119.7226,72.0068 -173.4988,85.0974 -85.2386,7.1048 -174.5309,31.6776 -262.464,13.6641 -63.3246,-28.4406 -81.335,50.4412 -153.1551,28.7959 -98.0322,-3.6503 -198.9625,12.6247 -294.73544,-13.8438 -82.0974,-4.7828 -160.0143,-20.1467 -243.1848,-14.6255 -58.7809,8.7915 -168.2033,-48.3968 -64.3665,-89.3163 69.5185,-17.9667 168.0467,-45.8861 169.2987,-131.7275 31.0432,-103.6157 -58.2285,-184.7766 -124.822,-252.7191 -56.9064,-72.0115 -113.484,-150.3105 -138.8356,-238.7615 -39.08172,-58.9314 -5.8958,-191.7569 -48.54019,-212.871 -54.64461,-19.3752 -75.66076,-72.6286 -131.03927,-93.7386 -10.01712,-28.2877 0.66757,-57.6773 3.5894,-86.1466 z"
       id="path3049"
       inkscape:connector-curvature="0" />
    <path
       style="fill:none;stroke:#000000;stroke-width:15;stroke-linecap:butt;stroke-linejoin:miter;stroke-miterlimit:4;stroke-opacity:1;stroke-dasharray:none"
       d="m 1171.3421,2166.2688 c -73.1539,5.386 -143.858,-22.7603 -217.00924,-11.4215 -24.9013,-20.4273 61.30024,-90.4779 45.68624,-142.1347 99.622,-60.7772 124.0759,72.0945 172.5921,129.4441 l 2.5173,12.0561 -3.7864,12.056 0,0 z"
       id="path3870"
       inkscape:connector-curvature="0" />
  </g>
</svg>
